#!OML:ASF E:\motion texture\Top Level 1\Subject 1\Session 1\male.ASF
:FULLY-SPECIFIED
:DEGREES
163
root 10.508 17.7625 6.0174 -34.0919 -87.7369 40.2716
lowerback 2.99072 -1.0018 -1.33681
upperback 2.21234 -1.41775 2.54454
thorax 0.691349 -0.763381 3.39696
lowerneck -16.6417 2.41521 -2.95526
upperneck 6.58993 2.74105 9.3837
head 4.5046 1.85248 3.64678
rclavicle -3.77691e-015 -7.95139e-015
rhumerus -37.2936 -31.4866 -69.8092
rradius 16.1681
rwrist 31.38
rhand -5.05046 -21.3568
rfingers 7.12502
rthumb 20.7449 -50.268
lclavicle -3.77691e-015 -7.95139e-015
lhumerus -9.04204 -14.8157 96.1915
lradius 39.3992
lwrist -18.9517
lhand -18.8717 20.327
lfingers 7.12502
lthumb 7.42899 50.1765
rfemur -34.7373 -6.77612 16.2501
rtibia 24.8233
rfoot -3.67327 -19.3479
rtoes 7.18191
lfemur -2.05819 -3.65113 -23.6575
ltibia 12.9974
lfoot -13.0761 -2.0984
ltoes 2.58189
164
root 10.3805 17.7464 6.00742 -35.0637 -87.554 41.6173
lowerback 2.94534 -1.09027 -1.40803
upperback 2.22771 -1.53863 2.61076
thorax 0.74488 -0.826544 3.50685
lowerneck -16.6292 2.57254 -2.83497
upperneck 6.52063 2.94552 9.23663
head 4.47091 1.94479 3.59512
rclavicle -6.16232e-015 2.14687e-014
rhumerus -37.6977 -30.9156 -69.9718
rradius 16.5492
rwrist 29.991
rhand -4.39179 -20.8494
rfingers 7.12502
rthumb 21.3777 -49.6901
lclavicle -6.16232e-015 2.14687e-014
lhumerus -9.22327 -14.9393 96.2588
lradius 41.1314
lwrist -16.8792
lhand -19.8748 20.3015
lfingers 7.12502
lthumb 6.46072 50.183
rfemur -34.642 -6.04191 15.8037
rtibia 21.8958
rfoot -3.44855 -19.1585
rtoes 6.49279
lfemur -1.96367 -3.52733 -23.7549
ltibia 12.9359
lfoot -13.3868 -2.34889
ltoes 2.5405
165
root 10.2516 17.7293 5.99627 -35.6395 -87.388 42.5632
lowerback 2.89128 -1.17844 -1.45112
upperback 2.24812 -1.65858 2.66971
thorax 0.807923 -0.889112 3.59283
lowerneck -16.6326 2.71549 -2.69334
upperneck 6.47708 3.12323 9.0964
head 4.45032 2.02572 3.54097
rclavicle 1.23246e-014 -1.35174e-014
rhumerus -38.0699 -30.5045 -70.0694
rradius 16.8627
rwrist 28.8219
rhand -3.83485 -20.4822
rfingers 7.12502
rthumb 21.9125 -49.2612
lclavicle 1.23246e-014 -1.35174e-014
lhumerus -9.41011 -15.0155 96.2917
lradius 42.8256
lwrist -15.0299
lhand -20.6871 20.2612
lfingers 7.12502
lthumb 5.67645 50.1652
rfemur -34.5067 -5.10794 15.2821
rtibia 19.1352
rfoot -3.55903 -19.225
rtoes 5.64517
lfemur -1.86811 -3.40299 -23.8197
ltibia 12.8909
lfoot -13.7027 -2.60629
ltoes 2.48081
166
root 10.1216 17.7116 5.98406 -35.902 -87.2426 43.1809
lowerback 2.81747 -1.26239 -1.46395
upperback 2.29006 -1.77297 2.72221
thorax 0.902987 -0.949353 3.65385
lowerneck -16.6444 2.84322 -2.53278
upperneck 6.43176 3.27624 8.95454
head 4.43298 2.09491 3.48153
rclavicle 1.98785e-016 0
rhumerus -38.3828 -30.2842 -70.0927
rradius 17.0845
rwrist 27.9257
rhand -3.38792 -20.2198
rfingers 7.12502
rthumb 22.3416 -48.948
lclavicle 1.98785e-016 0
lhumerus -9.56611 -15.0468 96.2904
lradius 44.4534
lwrist -13.4651
lhand -21.2827 20.2535
lfingers 7.12502
lthumb 5.10143 50.1721
rfemur -34.3592 -4.03845 14.7196
rtibia 16.6454
rfoot -4.01061 -19.5547
rtoes 4.67821
lfemur -1.76435 -3.27988 -23.8513
ltibia 12.871
lfoot -14.0222 -2.86318
ltoes 2.38399
167
root 9.99085 17.6933 5.97116 -35.9872 -87.1121 43.6024
lowerback 2.74721 -1.34626 -1.44978
upperback 2.3482 -1.88742 2.7705
thorax 1.01197 -1.00982 3.69479
lowerneck -16.6832 2.95993 -2.36161
upperneck 6.39597 3.41244 8.80202
head 4.42475 2.15611 3.41668
rclavicle 1.63003e-014 -3.18055e-014
rhumerus -38.6348 -30.2213 -70.0478
rradius 17.2162
rwrist 27.3029
rhand -3.05143 -20.0385
rfingers 7.12502
rthumb 22.6646 -48.7276
lclavicle 1.63003e-014 -3.18055e-014
lhumerus -9.69884 -15.025 96.2599
lradius 46.0148
lwrist -12.2269
lhand -21.6644 20.2937
lfingers 7.12502
lthumb 4.73287 50.2208
rfemur -34.2539 -2.96296 14.1734
rtibia 14.5589
rfoot -4.73397 -20.0861
rtoes 3.64787
lfemur -1.65867 -3.17187 -23.8637
ltibia 12.8905
lfoot -14.3443 -3.10857
ltoes 2.25123
168
root 9.85943 17.6745 5.95781 -36.13 -87.001 44.0534
lowerback 2.70168 -1.41953 -1.40777
upperback 2.41214 -1.98761 2.80985
thorax 1.11083 -1.06267 3.71086
lowerneck -16.7185 3.06519 -2.19563
upperneck 6.3509 3.53495 8.64834
head 4.41422 2.21011 3.35107
rclavicle -1.98785e-015 7.95139e-016
rhumerus -38.8517 -30.2823 -69.938
rradius 17.277
rwrist 26.9202
rhand -2.80848 -19.9267
rfingers 7.12502
rthumb 22.8978 -48.5872
lclavicle -1.98785e-015 7.95139e-016
lhumerus -9.82296 -14.9869 96.211
lradius 47.4864
lwrist -11.3201
lhand -21.8489 20.3999
lfingers 7.12502
lthumb 4.55464 50.3309
rfemur -34.2382 -2.05882 13.7418
rtibia 13.0148
rfoot -5.5881 -20.6778
rtoes 2.68247
lfemur -1.5416 -3.07579 -23.8666
ltibia 12.9509
lfoot -14.6624 -3.32901
ltoes 2.06448
169
root 9.72749 17.6555 5.94418 -36.4505 -86.9078 44.6467
lowerback 2.69828 -1.48187 -1.341
upperback 2.47961 -2.07309 2.83974
thorax 1.18733 -1.10748 3.70399
lowerneck -16.7583 3.16256 -2.04884
upperneck 6.29856 3.65122 8.49648
head 4.4025 2.26062 3.2887
rclavicle -3.1408e-014 3.18055e-014
rhumerus -39.0449 -30.501 -69.7312
rradius 17.2477
rwrist 26.8191
rhand -2.69858 -19.8353
rfingers 7.12502
rthumb 23.0032 -48.4826
lclavicle -3.1408e-014 3.18055e-014
lhumerus -9.95235 -14.9156 96.1541
lradius 48.8736
lwrist -10.7588
lhand -21.8825 20.5344
lfingers 7.12502
lthumb 4.52222 50.4661
rfemur -34.3444 -1.50516 13.5241
rtibia 12.1212
rfoot -6.38139 -21.1411
rtoes 1.90573
lfemur -1.40946 -2.99597 -23.8704
ltibia 13.0577
lfoot -14.9739 -3.50826
ltoes 1.81063
170
root 9.5948 17.6368 5.93063 -37.1482 -86.8355 45.5737
lowerback 2.73623 -1.53281 -1.25643
upperback 2.5613 -2.14371 2.86126
thorax 1.25313 -1.14466 3.6792
lowerneck -16.8238 3.25591 -1.93707
upperneck 6.23879 3.76919 8.35085
head 4.39194 2.31182 3.23464
rclavicle 9.54166e-015 -4.53229e-014
rhumerus -39.1949 -30.7913 -69.4865
rradius 17.1665
rwrist 26.908
rhand -2.74595 -19.8006
rfingers 7.12502
rthumb 22.9578 -48.4536
lclavicle 9.54166e-015 -4.53229e-014
lhumerus -10.0776 -14.8035 96.091
lradius 50.1695
lwrist -10.5221
lhand -21.8297 20.6433
lfingers 7.12502
lthumb 4.57326 50.5739
rfemur -34.5693 -1.38885 13.5749
rtibia 11.9136
rfoot -6.91868 -21.3071
rtoes 1.3044
lfemur -1.24832 -2.9266 -23.8878
ltibia 13.2036
lfoot -15.2724 -3.63412
ltoes 1.51228
171
root 9.46102 17.6186 5.91693 -38.2678 -86.7854 46.8781
lowerback 2.81851 -1.57172 -1.16219
upperback 2.64853 -2.19838 2.87741
thorax 1.29793 -1.1735 3.64457
lowerneck -16.8825 3.35076 -1.84415
upperneck 6.16449 3.8952 8.19541
head 4.37539 2.36556 3.18076
rclavicle -6.16232e-015 1.90833e-014
rhumerus -39.3254 -31.1783 -69.1659
rradius 17.0161
rwrist 27.2118
rhand -2.9512 -19.82
rfingers 7.12502
rthumb 22.7608 -48.4973
lclavicle -6.16232e-015 1.90833e-014
lhumerus -10.2406 -14.6497 96.033
lradius 51.3943
lwrist -10.5743
lhand -21.771 20.6621
lfingers 7.12502
lthumb 4.62988 50.5916
rfemur -34.8815 -1.63543 13.8636
rtibia 12.3282
rfoot -7.12207 -21.1577
rtoes 1.14112
lfemur -1.053 -2.86419 -23.9186
ltibia 13.3838
lfoot -15.5508 -3.70282
ltoes 1.14218
172
root 9.32578 17.6018 5.90264 -39.7662 -86.7541 48.5163
lowerback 2.9456 -1.60154 -1.07054
upperback 2.74113 -2.24127 2.89506
thorax 1.3224 -1.19645 3.61426
lowerneck -16.9562 3.44451 -1.79025
upperneck 6.09195 4.02768 8.04421
head 4.36076 2.42217 3.13546
rclavicle 3.97569e-016 -2.38542e-015
rhumerus -39.4261 -31.6002 -68.8028
rradius 16.8183
rwrist 27.6559
rhand -3.3006 -19.8979
rfingers 7.12502
rthumb 22.4254 -48.6161
lclavicle 3.97569e-016 -2.38542e-015
lhumerus -10.441 -14.4431 95.9889
lradius 52.5306
lwrist -10.8743
lhand -21.7345 20.5742
lfingers 7.12502
lthumb 4.66512 50.5028
rfemur -35.214 -2.03911 14.2729
rtibia 13.174
rfoot -6.95899 -20.7972
rtoes 1.56431
lfemur -0.82107 -2.81803 -23.9617
ltibia 13.5969
lfoot -15.8049 -3.70807
ltoes 0.676816
173
root 9.1894 17.5869 5.88737 -41.5025 -86.7417 50.355
lowerback 3.11335 -1.62142 -0.981496
upperback 2.82249 -2.27039 2.91473
thorax 1.31172 -1.21203 3.58901
lowerneck -16.9812 3.53689 -1.73576
upperneck 6.00569 4.16137 7.87594
head 4.33465 2.47742 3.08329
rclavicle 1.59028e-015 2.38542e-015
rhumerus -39.5353 -32.0541 -68.3837
rradius 16.5858
rwrist 28.2012
rhand -3.74713 -20.066
rfingers 7.12502
rthumb 21.9968 -48.8352
lclavicle 1.59028e-015 2.38542e-015
lhumerus -10.7146 -14.1992 95.9657
lradius 53.5676
lwrist -11.3754
lhand -21.7377 20.3717
lfingers 7.12502
lthumb 4.66202 50.3004
rfemur -35.5139 -2.39413 14.6777
rtibia 14.2
rfoot -6.3538 -20.3925
rtoes 2.52459
lfemur -0.562364 -2.80955 -24.0091
ltibia 13.8426
lfoot -16.0207 -3.64765
ltoes 0.0717354
174
root 9.05175 17.5748 5.8708 -43.2968 -86.754 52.2223
lowerback 3.31253 -1.63332 -0.890818
upperback 2.89494 -2.28848 2.9442
thorax 1.27388 -1.22186 3.57414
lowerneck -16.9728 3.63065 -1.67453
upperneck 5.91054 4.29866 7.68498
head 4.30119 2.53267 3.02219
rclavicle -3.61788e-014 4.13472e-014
rhumerus -39.6328 -32.5418 -67.9139
rradius 16.3161
rwrist 28.835
rhand -4.26897 -20.3253
rfingers 7.12502
rthumb 21.4957 -49.1526
lclavicle -3.61788e-014 4.13472e-014
lhumerus -11.05 -13.9121 95.9684
lradius 54.4826
lwrist -12.0418
lhand -21.7555 20.0897
lfingers 7.12502
lthumb 4.64488 50.0187
rfemur -35.7326 -2.56346 15.0021
rtibia 15.1815
rfoot -5.35327 -20.1195
rtoes 3.98051
lfemur -0.288224 -2.86079 -24.0481
ltibia 14.1243
lfoot -16.1856 -3.51276
ltoes -0.711042
175
root 8.91283 17.5666 5.8527 -45.0255 -86.808 54.0069
lowerback 3.53963 -1.63474 -0.780203
upperback 2.94314 -2.29099 2.98577
thorax 1.19414 -1.22295 3.5618
lowerneck -16.8972 3.7272 -1.59863
upperneck 5.7998 4.44011 7.47378
head 4.25321 2.588 2.95062
rclavicle 5.1684e-015 -1.59028e-014
rhumerus -39.7511 -33.0521 -67.3875
rradius 16.0192
rwrist 29.5497
rhand -4.84853 -20.6533
rfingers 7.12502
rthumb 20.9389 -49.5432
lclavicle 5.1684e-015 -1.59028e-014
lhumerus -11.4737 -13.5847 96.0015
lradius 55.2612
lwrist -12.8385
lhand -21.8243 19.731
lfingers 7.12502
lthumb 4.57847 49.6615
rfemur -35.8561 -2.50122 15.2358
rtibia 15.9662
rfoot -4.06392 -20.1015
rtoes 5.59085
lfemur -0.0203806 -2.98443 -24.0579
ltibia 14.4549
lfoot -16.291 -3.28877
ltoes -1.69073
176
root 8.77168 17.5635 5.83358 -46.3583 -86.9189 55.3811
lowerback 3.76679 -1.62683 -0.624737
upperback 2.98164 -2.27963 3.04907
thorax 1.10268 -1.21659 3.54661
lowerneck -16.7824 3.82252 -1.50612
upperneck 5.68468 4.57892 7.24276
head 4.19909 2.64085 2.86891
rclavicle -1.90833e-014 3.89618e-014
rhumerus -39.8705 -33.6216 -66.7908
rradius 15.6861
rwrist 30.3835
rhand -5.47222 -21.0285
rfingers 7.12502
rthumb 20.3396 -49.9834
lclavicle -1.90833e-014 3.89618e-014
lhumerus -11.9512 -13.2282 96.0658
lradius 55.8699
lwrist -13.7156
lhand -21.9323 19.3377
lfingers 7.12502
lthumb 4.47418 49.2704
rfemur -35.8763 -2.26618 15.4319
rtibia 16.5029
rfoot -2.61157 -20.3576
rtoes 6.995
lfemur 0.236459 -3.16323 -24.0101
ltibia 14.8417
lfoot -16.3276 -3.00038
ltoes -2.85303
177
root 8.62751 17.5662 5.81373 -47.1839 -87.0984 56.2516
lowerback 3.96009 -1.61271 -0.411026
upperback 3.01553 -2.25857 3.13978
thorax 1.02373 -1.20513 3.52564
lowerneck -16.6481 3.91432 -1.41786
upperneck 5.56804 4.71408 7.01131
head 4.14205 2.6918 2.78695
rclavicle -1.11319e-014 -7.95139e-016
rhumerus -39.9831 -34.2772 -66.1082
rradius 15.3147
rwrist 31.3822
rhand -6.1281 -21.4226
rfingers 7.12502
rthumb 19.7092 -50.4434
lclavicle -1.11319e-014 -7.95139e-016
lhumerus -12.4726 -12.8229 96.1616
lradius 56.2948
lwrist -14.6621
lhand -22.1095 18.9283
lfingers 7.12502
lthumb 4.303 48.8645
rfemur -35.8257 -1.93045 15.6458
rtibia 16.8446
rfoot -1.17339 -20.8461
rtoes 8.14372
lfemur 0.457305 -3.36528 -23.8839
ltibia 15.2954
lfoot -16.2883 -2.67671
ltoes -4.18571
